# Blender v2.82 (sub 7) OBJ File: 'mtv_road_block_half.blend'
# www.blender.org
mtllib mtv_road_block_base_half.mtl
o Cube.001
v -0.500000 -0.500000 0.500000
v -0.500000 0.500000 0.500000
v -0.500000 0.500000 -1.500000
v -0.500000 -0.500000 -1.500000
v 0.500000 0.500000 -1.500000
v 0.500000 -0.500000 -1.500000
v 0.500000 0.500000 0.500000
v 0.500000 -0.500000 0.500000
vt 0.250000 1.000000
vt 0.750000 1.000000
vt 0.750000 0.000000
vt 0.250000 0.000000
vt 0.500000 0.500000
vt 0.500000 1.000000
vt 1.000000 1.000000
vt 1.000000 0.500000
vt 0.250000 0.000000
vt 0.750000 0.000000
vt 0.750000 1.000000
vt 0.250000 1.000000
vt 1.000000 0.500000
vt 1.000000 1.000000
vt 0.500000 1.000000
vt 0.500000 0.500000
vt 0.750000 0.000000
vt 0.750000 1.000000
vt 0.250000 0.000000
vt 0.250000 1.000000
vn -1.0000 0.0000 0.0000
vn 0.0000 0.0000 -1.0000
vn 1.0000 0.0000 0.0000
vn 0.0000 -0.0000 1.0000
vn 0.0000 -1.0000 -0.0000
vn 0.0000 1.0000 0.0000
usemtl None
s off
f 1/1/1 2/2/1 3/3/1 4/4/1
f 4/5/2 3/6/2 5/7/2 6/8/2
f 6/9/3 5/10/3 7/11/3 8/12/3
f 8/13/4 7/14/4 2/15/4 1/16/4
f 4/4/5 6/17/5 8/18/5 1/1/5
f 5/10/6 3/19/6 2/20/6 7/11/6
