# Blender v2.82 (sub 7) OBJ File: 'mtv_road_corner.blend'
# www.blender.org
mtllib mtv_road_corner.mtl
o mtv_road_corner
v 1.500857 0.317623 -0.500251
v 1.100819 0.277623 -0.500251
v 1.100819 0.286655 0.499847
v 1.500857 0.317623 0.499847
v 0.700780 0.317623 -0.500251
v 0.700780 0.317623 0.499847
v 1.100819 0.277623 -1.096989
v 1.500857 0.317623 -1.500324
v 0.700780 0.317623 -0.695227
v 0.505565 0.317623 -0.500251
v 0.300740 0.317623 -0.295668
v 0.300740 0.317623 0.499847
v -0.099298 0.277623 0.101703
v -0.099298 0.286655 0.499847
v -0.499728 0.317263 0.499847
v 0.505555 0.317623 -1.501540
v -0.499728 0.317623 -1.501540
v -0.499728 0.286655 -1.101501
v 0.505555 0.277623 -1.101501
v -0.499728 0.317623 -0.701461
v 0.505555 0.317623 -0.701461
v -0.499728 0.317623 -0.301421
v -0.499728 0.287042 0.098617
v 0.500760 0.232877 -1.500349
v 0.500760 0.232877 -1.100309
v -0.499728 0.232877 -1.100309
v -0.499728 0.232877 -1.500349
v 0.500760 0.232877 -0.700270
v -0.499728 0.232877 -0.700270
v 0.500760 0.232877 -0.300232
v -0.499728 0.232877 -0.300232
v 0.500760 0.232877 0.099808
v -0.499728 0.232877 0.099808
v 0.500760 0.232877 0.499847
v -0.499728 0.232877 0.499847
v 1.500857 0.232877 -1.500349
v 1.500857 0.232877 -1.100309
v 1.500857 0.232877 -0.700270
v 1.500857 0.232877 -0.300232
v 1.500857 0.232877 0.099808
v 1.500857 0.232877 0.499847
v 1.500857 0.317623 0.499847
v 1.100819 0.287042 0.499847
v 1.100819 0.232877 0.499847
v 1.500857 0.232877 0.499847
v 0.700780 0.317623 0.499847
v 0.700780 0.232877 0.499847
v 0.300740 0.317623 0.499847
v 0.300740 0.232877 0.499847
v -0.099298 0.287042 0.499847
v -0.099298 0.232877 0.499847
v -0.499728 0.317623 0.499847
v -0.499728 0.232877 0.499847
v 1.500857 0.317623 -1.500349
v 1.500857 0.317623 -0.500251
v 1.500857 0.232877 -0.500251
v 1.500857 0.232877 -1.500349
v -0.499728 0.317623 -1.500349
v -0.499728 0.232877 -1.500349
v -0.499728 0.232877 -1.100309
v -0.499728 0.287042 -1.100309
v -0.499728 0.232877 -0.700270
v -0.499728 0.317623 -0.700270
v -0.499728 0.232877 -0.300232
v -0.499728 0.317623 -0.300232
v -0.499728 0.232877 0.099808
v -0.499728 0.287042 0.099808
v 0.500760 0.232877 -1.500349
v 0.500760 0.317623 -1.500349
vt 0.000000 0.500000
vt 0.200000 0.500000
vt 0.200000 1.000000
vt 0.000000 1.000000
vt 0.400000 0.500000
vt 0.400000 1.000000
vt 0.200000 0.201660
vt 0.000000 0.002990
vt 0.400000 0.402520
vt 0.497600 0.500000
vt 0.600000 0.602280
vt 0.600000 1.000000
vt 0.800000 0.800950
vt 0.800000 1.000000
vt 0.998200 1.000000
vt 0.000000 0.500000
vt 0.000000 1.000000
vt 0.200000 1.000000
vt 0.200000 0.500000
vt 0.400000 1.000000
vt 0.400000 0.500000
vt 0.600000 1.000000
vt 0.800000 1.000000
vt 0.000000 0.500000
vt 0.200000 0.500000
vt 0.200000 1.000000
vt 0.000000 1.000000
vt 0.400000 0.500000
vt 0.400000 1.000000
vt 0.600000 0.500000
vt 0.600000 1.000000
vt 0.800000 0.500000
vt 0.800000 1.000000
vt 1.000000 0.500000
vt 1.000000 1.000000
vt 0.000000 0.000000
vt 0.200000 0.000000
vt 0.400000 0.000000
vt 0.600000 0.000000
vt 0.800000 0.000000
vt 1.000000 0.000000
vt 0.002604 1.000000
vt 0.002604 0.800000
vt 0.065104 0.800000
vt 0.065104 1.000000
vt 0.002604 0.600000
vt 0.065104 0.600000
vt 0.002604 0.400000
vt 0.065104 0.400000
vt 0.002604 0.200000
vt 0.065104 0.200000
vt 0.002604 0.000000
vt 0.065104 0.000000
vt 0.002604 1.000000
vt 0.002604 0.500000
vt 0.065104 0.500000
vt 0.065104 1.000000
vt 0.002604 0.000000
vt 0.065104 0.000000
vt 0.002604 1.000000
vt 0.065104 1.000000
vt 0.065104 0.800000
vt 0.002604 0.800000
vt 0.065104 0.600000
vt 0.002604 0.600000
vt 0.065104 0.400000
vt 0.002604 0.400000
vt 0.065104 0.200000
vt 0.002604 0.200000
vt 0.065104 0.500000
vt 0.002604 0.500000
vt 0.065104 0.000000
vt 0.002604 0.000000
vn -0.0884 0.9961 -0.0045
vn 0.0884 0.9961 -0.0045
vn -0.0995 0.9950 0.0000
vn 0.0995 0.9950 0.0000
vn 0.0000 1.0000 0.0000
vn -0.0921 0.9957 -0.0075
vn 0.0762 0.9968 -0.0226
vn 0.0045 0.9961 0.0884
vn 0.0045 0.9961 -0.0884
vn -0.0004 0.9951 0.0989
vn 0.0013 0.9951 -0.0986
vn 0.0071 0.9958 0.0917
vn 0.0240 0.9969 -0.0751
vn 0.0000 -1.0000 -0.0000
vn 0.0000 0.0000 1.0000
vn 1.0000 0.0000 0.0000
vn -1.0000 0.0000 0.0000
vn 0.0000 0.0000 -1.0000
usemtl cobblestones
s off
f 1/1/1 2/2/1 3/3/1 4/4/1
f 2/2/2 5/5/2 6/6/2 3/3/2
f 7/7/3 2/2/3 1/1/3 8/8/3
f 9/9/4 5/5/4 2/2/4 7/7/4
f 10/10/5 5/5/5 9/9/5
f 10/10/5 11/11/5 12/12/5 6/6/5
f 10/10/5 6/6/5 5/5/5
f 13/13/6 14/14/6 12/12/6 11/11/6
f 15/15/7 14/14/7 13/13/7
f 16/16/8 17/17/8 18/18/8 19/19/8
f 19/19/9 18/18/9 20/20/9 21/21/9
f 7/7/10 8/8/10 16/16/10 19/19/10
f 9/9/11 7/7/11 19/19/11 21/21/11
f 10/10/5 9/9/5 21/21/5
f 10/10/5 20/20/5 22/22/5 11/11/5
f 10/10/5 21/21/5 20/20/5
f 13/13/12 11/11/12 22/22/12 23/23/12
f 15/15/13 13/13/13 23/23/13
usemtl roadtopcrnr
f 24/24/14 25/25/14 26/26/14 27/27/14
f 25/25/14 28/28/14 29/29/14 26/26/14
f 28/28/14 30/30/14 31/31/14 29/29/14
f 30/30/14 32/32/14 33/33/14 31/31/14
f 32/32/14 34/34/14 35/35/14 33/33/14
f 36/36/14 37/37/14 25/25/14 24/24/14
f 37/37/14 38/38/14 28/28/14 25/25/14
f 38/38/14 39/39/14 30/30/14 28/28/14
f 39/39/14 40/40/14 32/32/14 30/30/14
f 40/40/14 41/41/14 34/34/14 32/32/14
f 42/42/15 43/43/15 44/44/15 45/45/15
f 43/43/15 46/46/15 47/47/15 44/44/15
f 46/46/15 48/48/15 49/49/15 47/47/15
f 48/48/15 50/50/15 51/51/15 49/49/15
f 50/50/15 52/52/15 53/53/15 51/51/15
f 54/54/16 55/55/16 56/56/16 57/57/16
f 55/55/16 42/58/16 45/59/16 56/56/16
f 58/60/17 59/61/17 60/62/17 61/63/17
f 61/63/17 60/62/17 62/64/17 63/65/17
f 63/65/17 62/64/17 64/66/17 65/67/17
f 65/67/17 64/66/17 66/68/17 67/69/17
f 67/69/17 66/68/17 53/53/17 52/52/17
f 54/54/18 57/57/18 68/70/18 69/71/18
f 69/71/18 68/70/18 59/72/18 58/73/18
