# Blender v2.82 (sub 7) OBJ File: 'mtv_road_edge_corner_in.blend'
# www.blender.org
mtllib mtv_road_edge_corner_in.mtl
o mtv_road_edge_corner_out
v -0.501179 0.318415 -1.332798
v 0.493666 0.318416 -1.332799
v 0.493666 0.318416 -1.499150
v -0.501181 0.318415 -1.499150
v -0.501180 0.356759 -1.106820
v 0.493666 0.356759 -1.106821
v -0.501182 0.426233 -0.888470
v -0.501182 0.500441 -0.510692
v 0.501587 0.500441 -0.507498
v 0.493666 0.426233 -0.888469
v -0.501182 0.500441 0.499998
v 1.326524 0.318416 -1.332798
v 1.497798 0.318416 -1.499150
v 1.099887 0.356759 -1.106821
v 0.880341 0.426233 -0.888470
v 1.331616 0.318416 -0.504303
v 1.331616 0.318416 0.499999
v 1.497969 0.318416 0.499999
v 1.497967 0.318416 -0.504303
v 1.105637 0.356759 -0.504303
v 1.105637 0.356759 0.499999
v 0.887287 0.426233 -0.504303
v 0.509508 0.500441 0.499998
v 0.887286 0.426233 0.500000
v -0.501179 0.318415 -1.332798
v -0.501181 0.318415 -1.499150
v -0.501181 0.251617 -1.499150
v -0.501179 0.251617 -1.332798
v -0.501180 0.251617 -1.106820
v -0.501180 0.356759 -1.106820
v -0.501182 0.251617 -0.888470
v -0.501182 0.426233 -0.888470
v -0.501182 0.251617 -0.510692
v -0.501182 0.251617 0.499998
v -0.501182 0.500441 0.499998
v -0.501182 0.500441 -0.510692
v 0.493666 0.318416 -1.499150
v 1.497966 0.318416 -1.499150
v 1.497966 0.251617 -1.499150
v 0.493666 0.251617 -1.499150
v 1.331616 0.318416 0.499999
v 1.331616 0.251617 0.499999
v 1.497969 0.251617 0.499999
v 1.497969 0.318416 0.499999
v 1.105637 0.356759 0.499999
v 1.105637 0.251617 0.499999
v 0.887286 0.426233 0.500000
v 0.887286 0.251617 0.500000
v 0.509508 0.500441 0.499998
v 0.509508 0.251617 0.499998
v 1.497967 0.318416 -0.504303
v 1.497967 0.251617 -0.504303
v 0.493666 0.251617 -1.499150
v 1.497966 0.251617 -1.499150
v 1.497965 0.251617 -1.332797
v 0.493666 0.251617 -1.332799
v -0.501179 0.251617 -1.332798
v -0.501181 0.251617 -1.499150
v 0.493666 0.251617 -1.106821
v -0.501180 0.251617 -1.106820
v 1.497966 0.251617 -1.106821
v 0.493666 0.251617 -0.888469
v -0.501182 0.251617 -0.888470
v 1.497967 0.251617 -0.888470
v 0.493666 0.251617 0.499998
v -0.501182 0.251617 0.499998
v -0.501182 0.251617 -0.510692
v 0.493666 0.251617 -0.510692
v 1.497967 0.251617 -0.510692
v 1.497966 0.251617 0.499997
vt 0.916760 0.000000
vt 0.916780 0.497620
vt 0.999990 0.497620
vt 0.999970 0.000000
vt 0.803730 0.000010
vt 0.803740 0.497620
vt 0.694510 0.000010
vt 0.505540 0.000020
vt 0.503960 0.501600
vt 0.694520 0.497630
vt -0.000010 0.000030
vt 0.916790 0.914210
vt 1.000010 0.999880
vt 0.803750 0.800860
vt 0.694530 0.691040
vt 0.502380 0.916780
vt 0.000030 0.916790
vt 0.000030 1.000000
vt 0.502380 0.999980
vt 0.502380 0.803740
vt 0.000020 0.803760
vt 0.502370 0.694520
vt 0.000010 0.505580
vt 0.000020 0.694540
vt 0.912850 0.000000
vt 1.000000 0.000000
vt 1.000000 0.125000
vt 0.919840 0.125000
vt 0.808170 0.125000
vt 0.803260 0.000000
vt 0.696730 0.125000
vt 0.693840 0.000000
vt 0.512370 0.125000
vt 0.000000 0.125000
vt 0.000000 0.000000
vt 0.510290 0.000000
vt 0.494370 0.937500
vt 1.000000 0.937500
vt 1.000000 1.000000
vt 0.494260 1.000000
vt 0.000000 1.000000
vt 0.000000 0.937500
vt 0.913730 0.125000
vt 0.920720 0.000000
vt 1.000000 0.000000
vt 1.000000 0.125000
vt 0.799330 0.125000
vt 0.804240 0.000000
vt 0.692330 0.125000
vt 0.695220 0.000000
vt 0.509500 0.125000
vt 0.000000 0.125000
vt 0.000000 -0.000000
vt 0.511590 0.000000
vt 0.494370 0.937500
vt 1.000000 0.937500
vt 1.000000 1.000000
vt 0.494260 1.000000
vt 0.000000 1.000000
vt 0.000000 0.937500
vt 1.000000 0.494260
vt 1.000000 1.000000
vt 0.920720 1.000000
vt 0.920280 0.494810
vt 0.919840 0.000000
vt 1.000000 0.000000
vt 0.806220 0.495560
vt 0.808170 0.000000
vt 0.804240 1.000000
vt 0.695980 0.496280
vt 0.696730 0.000000
vt 0.695220 1.000000
vt 0.000000 0.500870
vt 0.000000 0.000000
vt 0.512370 0.000000
vt 0.511980 0.497530
vt 0.511590 1.000000
vt 0.000000 1.000000
vn -0.0000 1.0000 0.0000
vn -0.0000 0.9859 -0.1673
vn 0.0003 0.9814 -0.1920
vn 0.0000 0.9529 -0.3032
vn 0.1673 0.9859 -0.0000
vn 0.1908 0.9816 -0.0008
vn 0.3032 0.9529 0.0000
vn 0.1664 0.9861 -0.0013
vn 0.3007 0.9537 -0.0039
vn -0.0000 0.9816 -0.1912
vn 0.1890 0.9820 -0.0034
vn -1.0000 0.0000 0.0000
vn 0.0000 0.0000 -1.0000
vn 0.0000 0.0000 1.0000
vn 1.0000 0.0000 -0.0000
vn 0.0000 -1.0000 0.0000
usemtl base
s off
f 1/1/1 2/2/1 3/3/1 4/4/1
f 5/5/2 6/6/2 2/2/2 1/1/2
f 7/7/3 8/8/3 9/9/3 10/10/3
f 7/7/4 10/10/4 6/6/4 5/5/4
f 9/9/1 8/8/1 11/11/1
f 12/12/1 13/13/1 3/3/1 2/2/1
f 14/14/2 12/12/2 2/2/2 6/6/2
f 15/15/4 14/14/4 6/6/4 10/10/4
f 16/16/1 17/17/1 18/18/1 19/19/1
f 20/20/5 21/21/5 17/17/5 16/16/5
f 22/22/6 9/9/6 23/23/6 24/24/6
f 22/22/7 24/24/7 21/21/7 20/20/7
f 9/9/1 11/11/1 23/23/1
f 12/12/1 16/16/1 19/19/1 13/13/1
f 14/14/8 20/20/8 16/16/8 12/12/8
f 15/15/9 22/22/9 20/20/9 14/14/9
f 9/9/10 15/15/10 10/10/10
f 9/9/11 22/22/11 15/15/11
usemtl grasstop
f 25/25/12 26/26/12 27/27/12 28/28/12
f 29/29/12 30/30/12 25/25/12 28/28/12
f 31/31/12 32/32/12 30/30/12 29/29/12
f 33/33/12 34/34/12 35/35/12 36/36/12
f 33/33/12 36/36/12 32/32/12 31/31/12
f 37/37/13 38/38/13 39/39/13 40/40/13
f 37/37/13 40/40/13 27/41/13 26/42/13
f 41/43/14 42/44/14 43/45/14 44/46/14
f 45/47/14 46/48/14 42/44/14 41/43/14
f 47/49/14 48/50/14 46/48/14 45/47/14
f 49/51/14 35/52/14 34/53/14 50/54/14
f 49/51/14 50/54/14 48/50/14 47/49/14
f 51/55/15 44/56/15 43/57/15 52/58/15
f 51/55/15 52/58/15 39/59/15 38/60/15
f 53/61/16 54/62/16 55/63/16 56/64/16
f 53/61/16 56/64/16 57/65/16 58/66/16
f 59/67/16 60/68/16 57/65/16 56/64/16
f 59/67/16 56/64/16 55/63/16 61/69/16
f 62/70/16 63/71/16 60/68/16 59/67/16
f 62/70/16 59/67/16 61/69/16 64/72/16
f 65/73/16 66/74/16 67/75/16 68/76/16
f 65/73/16 68/76/16 69/77/16 70/78/16
f 68/76/16 67/75/16 63/71/16 62/70/16
f 68/76/16 62/70/16 64/72/16 69/77/16
