# Blender v2.82 (sub 7) OBJ File: 'newroads01.blend'
# www.blender.org
mtllib mtv_road_edge_straight.mtl
o Cube.001_mtv_road_edge_straight
v -0.500000 -0.500000 0.500000
v -0.500000 0.500000 0.500000
v -0.500000 -0.500000 -1.500000
v -0.500000 -0.500000 -1.500000
v 1.500000 -0.500000 0.500000
v 1.500000 0.500000 0.500000
v 1.500000 -0.500000 -1.500000
v 1.500000 -0.500000 -1.500000
v -0.500000 0.250000 -0.500000
v 1.500000 0.250000 -0.500000
v -0.500000 -0.500000 -0.500000
v -0.500000 -0.500000 -1.500000
v 1.500000 -0.500000 -1.500000
v 1.500000 -0.500000 -0.500000
vt 0.997024 0.000168
vt 0.498512 0.000168
vt 0.623512 0.488277
vt 0.997024 0.999792
vt 0.997024 0.999792
vt 0.997024 0.999792
vt 0.997024 0.462028
vt 0.998512 0.999792
vt 0.998512 0.999792
vt 0.998512 0.999792
vt 0.622024 0.488277
vt 0.497024 0.000168
vt 0.998512 0.000168
vt 0.998512 0.462028
vt 1.000000 0.001013
vt 1.000000 0.344804
vt 0.000000 0.344804
vt 0.000000 0.001013
vt 0.000000 1.000465
vt 1.000000 1.000465
vt 1.000000 0.500465
vt 1.000000 0.000465
vt 0.000000 0.000465
vt 0.000000 0.500465
vt -0.001488 0.462028
vt 0.998512 0.462028
vt 0.998512 0.000168
vt -0.001488 0.000168
vt -0.001488 0.999792
vt 0.998512 0.999792
vn -1.0000 0.0000 0.0000
vn 1.0000 0.0000 0.0000
vn 0.0000 0.0000 1.0000
vn 0.0000 -1.0000 0.0000
vn 0.0000 0.9701 -0.2425
vn 0.0000 0.8000 -0.6000
usemtl None
s off
f 1/1/1 2/2/1 9/3/1 4/4/1 12/5/1 3/6/1 11/7/1
f 7/8/2 13/9/2 8/10/2 10/11/2 6/12/2 5/13/2 14/14/2
f 5/15/3 6/16/3 2/17/3 1/18/3
f 3/19/4 7/20/4 14/21/4 5/22/4 1/23/4 11/24/4
f 10/25/5 9/26/5 2/27/5 6/28/5
f 8/29/6 4/30/6 9/26/6 10/25/6
