# Blender v2.82 (sub 7) OBJ File: 'newroads01.blend'
# www.blender.org
mtllib mtv_road_block_ramp.mtl
o Cube.001_ramp
v -0.500000 -0.500000 0.500000
v -0.500000 0.500000 0.500000
v -0.500000 -0.500000 -1.500000
v -0.500000 -0.500000 -1.500000
v 1.500000 -0.500000 0.500000
v 1.500000 0.500000 0.500000
v 1.500000 -0.500000 -1.500000
v 1.500000 -0.500000 -1.500000
vt 0.278993 1.000000
vt 0.721006 1.000000
vt 0.721007 0.000000
vt 0.278994 0.000000
vt 0.278994 0.000000
vt 0.721007 0.000000
vt 0.721006 1.000000
vt 0.278993 1.000000
vt 0.279583 0.000000
vt 0.720417 0.000000
vt 0.720417 1.000000
vt 0.279583 1.000000
vt 0.000000 1.000000
vt 1.000000 1.000000
vt 1.000000 0.000000
vt 0.000000 0.000000
vt 1.000000 1.000000
vt 0.000000 1.000000
vt 0.000000 0.000000
vt 1.000000 0.000000
vn -1.0000 0.0000 0.0000
vn 1.0000 0.0000 0.0000
vn 0.0000 0.0000 1.0000
vn 0.0000 -1.0000 0.0000
vn 0.0000 0.8944 -0.4472
usemtl None
s off
f 1/1/1 2/2/1 4/3/1 3/4/1
f 7/5/2 8/6/2 6/7/2 5/8/2
f 5/9/3 6/10/3 2/11/3 1/12/3
f 3/13/4 7/14/4 5/15/4 1/16/4
f 8/17/5 4/18/5 2/19/5 6/20/5
