# Blender v2.82 (sub 7) OBJ File: 'newroads01.blend'
# www.blender.org
mtllib mtv_road_edge_corner_out.mtl
o Cube.003_mtv_road_edge_straight.002
v -0.500000 -0.500000 0.500000
v -0.500000 -0.500000 -1.500000
v 1.500000 -0.500000 0.500000
v 1.500000 -0.500000 -1.500000
v -0.500000 -0.500000 0.500000
v -0.500000 0.500000 0.500000
v -0.500000 -0.500000 -1.500000
v -0.500000 -0.500000 -1.500000
v 1.500000 -0.500000 0.500000
v 1.500000 0.500000 0.500000
v 1.500000 -0.500000 -1.500000
v -0.500000 0.250000 -0.500000
v 1.500000 0.250000 -0.500000
v -0.500000 -0.500000 -0.500000
v -0.500000 -0.500000 -1.500000
v 1.500000 -0.500000 0.500000
v 1.500000 0.500000 0.500000
v -0.500000 -0.500000 0.500000
v 1.500000 -0.500000 -1.500000
v 1.500000 0.500000 -1.500000
v -0.500000 -0.500000 -1.500000
v -0.500000 -0.500000 -1.500000
v 0.500000 0.250000 0.500000
v 0.500000 0.250000 -1.500000
v -0.500000 -0.500000 -1.500000
vt 1.000000 0.000465
vt 0.000000 0.000465
vt 0.000000 1.000465
vt 1.000000 1.000465
vt -0.002044 0.000724
vt -0.002044 0.499236
vt 0.486065 0.374236
vt 0.997580 0.000724
vt 0.997580 0.000724
vt 0.997580 0.000724
vt 0.459816 0.000724
vt 0.000820 -0.000269
vt 0.344612 -0.000269
vt 0.344611 0.999731
vt 0.000820 0.999731
vt 0.460443 0.998765
vt 0.460443 -0.001234
vt -0.001417 -0.001234
vt -0.001417 0.998765
vt 0.998100 0.999597
vt 0.998100 -0.000403
vt 0.460337 -0.000403
vt 0.460337 0.999597
vt 0.998512 0.000168
vt 0.998512 0.000168
vt 0.998512 0.000168
vt 0.622024 0.511683
vt 0.497024 0.999792
vt 0.998512 0.999792
vt 1.000000 0.654162
vt 1.000000 0.997953
vt 0.000000 0.997953
vt 0.000000 0.654162
vt 0.999168 0.537275
vt -0.000832 0.537275
vt -0.000832 0.999136
vt 0.999169 0.999135
vt 1.000655 0.000630
vt 0.000655 0.000630
vt 0.000655 0.538393
vt 1.000655 0.538393
vn 0.0000 -1.0000 0.0000
vn -1.0000 0.0000 0.0000
vn 0.0000 0.0000 1.0000
vn 0.0000 0.9701 -0.2425
vn 0.0000 0.8000 -0.6000
vn 0.0000 0.0000 -1.0000
vn 1.0000 0.0000 0.0000
vn -0.2425 0.9701 -0.0000
vn -0.6000 0.8000 -0.0000
usemtl None
s off
f 2/1/1 4/2/1 3/3/1 1/4/1
f 5/5/2 6/6/2 12/7/2 8/8/2 15/9/2 7/10/2 14/11/2
f 9/12/3 10/13/3 6/14/3 5/15/3
f 13/16/4 12/17/4 6/18/4 10/19/4
f 11/20/5 8/21/5 12/22/5 13/23/5
f 21/24/6 25/25/6 22/26/6 24/27/6 20/28/6 19/29/6
f 19/30/7 20/31/7 17/32/7 16/33/7
f 24/34/8 23/35/8 17/36/8 20/37/8
f 22/38/9 18/39/9 23/40/9 24/41/9
