# Blender v2.82 (sub 7) OBJ File: 'mtv_road_edge.blend'
# www.blender.org
mtllib mtv_road_edge.mtl
o mtv_road_edge
v 1.500182 0.500150 -0.511212
v 0.495362 0.500150 -0.511212
v 0.495361 0.500150 0.500000
v 1.500182 0.500150 0.500000
v -0.500000 0.500150 -0.511212
v -0.500000 0.500150 0.500000
v 0.495362 0.317852 -1.333744
v 1.500182 0.317852 -1.333744
v 1.500182 0.317852 -1.500181
v 0.495362 0.317852 -1.500181
v -0.500000 0.317852 -1.333744
v -0.500000 0.317852 -1.500182
v 0.495362 0.356216 -1.107649
v 1.500182 0.356216 -1.107649
v -0.500000 0.356216 -1.107649
v 0.495362 0.425725 -0.889185
v 1.500182 0.425725 -0.889185
v -0.500000 0.425725 -0.889186
v -0.500000 0.317852 -1.333744
v -0.500000 0.317852 -1.500182
v -0.500000 0.251019 -1.500182
v -0.500000 0.251019 -1.333744
v 1.500182 0.317852 -1.333744
v 1.500182 0.251019 -1.333744
v 1.500182 0.251019 -1.500181
v 1.500182 0.317852 -1.500181
v -0.500000 0.251019 -1.107649
v -0.500000 0.356216 -1.107649
v 1.500182 0.356216 -1.107649
v 1.500182 0.251019 -1.107649
v -0.500000 0.251019 -0.889186
v -0.500000 0.425725 -0.889186
v 1.500182 0.425725 -0.889185
v 1.500182 0.251019 -0.889185
v -0.500000 0.251019 -0.511212
v -0.500000 0.251019 0.500000
v -0.500000 0.500150 0.500000
v -0.500000 0.500150 -0.511212
v 1.500182 0.500150 -0.511212
v 1.500182 0.500150 0.500000
v 1.500182 0.251019 0.500000
v 1.500182 0.251019 -0.511212
v 0.495361 0.500150 0.500000
v 0.495361 0.251019 0.500000
v 0.495362 0.317852 -1.500181
v 0.495362 0.251019 -1.500181
v 0.495362 0.251019 -1.500181
v 1.500182 0.251019 -1.500181
v 1.500182 0.251019 -1.333744
v 0.495362 0.251019 -1.333744
v -0.500000 0.251019 -1.333744
v -0.500000 0.251019 -1.500182
v 0.495362 0.251019 -1.107649
v -0.500000 0.251019 -1.107649
v 1.500182 0.251019 -1.107649
v 0.495362 0.251019 -0.889185
v -0.500000 0.251019 -0.889186
v 1.500182 0.251019 -0.889185
v 0.495361 0.251019 0.500000
v -0.500000 0.251019 0.500000
v -0.500000 0.251019 -0.511212
v 0.495362 0.251019 -0.511212
v 1.500182 0.251019 -0.511212
v 1.500182 0.251019 0.500000
vt 0.000000 0.500000
vt 0.500000 0.500000
vt 0.500000 1.000000
vt 0.000000 1.000000
vt 1.000000 0.500000
vt 1.000000 1.000000
vt 0.500000 0.086710
vt 0.000000 0.086270
vt 0.000000 0.000000
vt 0.500000 0.000000
vt 1.000000 0.087150
vt 1.000000 0.000000
vt 0.500000 0.198700
vt 0.000000 0.200670
vt 1.000000 0.196740
vt 0.500000 0.306910
vt 0.000000 0.307670
vt 1.000000 0.306160
vt -0.000229 0.093452
vt -0.000229 0.006302
vt 0.217787 0.006303
vt 0.217787 0.086463
vt 0.218095 0.093818
vt 0.000079 0.086828
vt 0.000079 0.007548
vt 0.218095 0.007548
vt 0.217787 0.198132
vt -0.000229 0.203042
vt 0.218095 0.208218
vt 0.000079 0.203308
vt 0.156268 0.312246
vt -0.000229 0.312462
vt 0.156268 0.200806
vt 0.156575 0.312208
vt 0.000079 0.312328
vt 0.156575 0.201074
vt 0.155464 0.495310
vt 0.155464 0.999213
vt -0.000786 0.999213
vt -0.000786 0.495306
vt 0.000628 0.495423
vt 0.156545 0.495438
vt 0.156545 0.312238
vt 0.000628 0.312418
vt 0.156135 0.495323
vt 0.156134 0.999212
vt -0.000116 0.999212
vt -0.000115 0.495542
vt 0.156493 0.495335
vt 0.000561 0.495374
vt 0.000561 0.312081
vt 0.156493 0.312977
vt 0.495302 0.793987
vt 0.999056 0.793987
vt 0.999056 0.637737
vt 0.495184 0.637737
vt 0.999059 0.793987
vt 0.999054 0.637737
vt 0.495150 0.637737
vt 0.495150 0.793987
vt 0.493426 0.094643
vt 0.999056 0.094643
vt 0.999056 0.000159
vt 0.493316 0.000159
vt -0.001603 0.094643
vt -0.001713 0.000159
vt 0.504027 0.000159
vt 0.504027 0.094643
vt 0.494260 0.000000
vt 1.000000 0.000000
vt 1.000000 0.079280
vt 0.494810 0.079720
vt 0.000000 0.080160
vt 0.000000 0.000000
vt 0.495560 0.193780
vt 0.000000 0.191830
vt 1.000000 0.195760
vt 0.496280 0.304020
vt 0.000000 0.303270
vt 1.000000 0.304780
vt 0.500870 1.000000
vt 0.000000 1.000000
vt 0.000000 0.487630
vt 0.497530 0.488020
vt 1.000000 0.488410
vt 1.000000 1.000000
vn 0.0000 1.0000 -0.0000
vn 0.0000 0.9859 -0.1673
vn 0.0000 0.9812 -0.1932
vn 0.0000 0.9529 -0.3032
vn -1.0000 0.0000 -0.0000
vn 1.0000 0.0000 0.0000
vn -0.0000 0.0000 1.0000
vn 0.0000 0.0000 -1.0000
vn 0.0000 -1.0000 0.0000
usemtl base
s off
f 1/1/1 2/2/1 3/3/1 4/4/1
f 2/2/1 5/5/1 6/6/1 3/3/1
f 7/7/1 8/8/1 9/9/1 10/10/1
f 11/11/1 7/7/1 10/10/1 12/12/1
f 13/13/2 14/14/2 8/8/2 7/7/2
f 15/15/2 13/13/2 7/7/2 11/11/2
f 16/16/3 2/2/3 1/1/3 17/17/3
f 16/16/4 17/17/4 14/14/4 13/13/4
f 18/18/3 5/5/3 2/2/3 16/16/3
f 18/18/4 16/16/4 13/13/4 15/15/4
usemtl grasstop
f 19/19/5 20/20/5 21/21/5 22/22/5
f 23/23/6 24/24/6 25/25/6 26/26/6
f 27/27/5 28/28/5 19/19/5 22/22/5
f 29/29/6 30/30/6 24/24/6 23/23/6
f 31/31/5 32/32/5 28/28/5 27/33/5
f 33/34/6 34/35/6 30/30/6 29/36/6
f 35/37/5 36/38/5 37/39/5 38/40/5
f 35/41/5 38/42/5 32/43/5 31/44/5
f 39/45/6 40/46/6 41/47/6 42/48/6
f 39/49/6 42/50/6 34/51/6 33/52/6
f 43/53/7 37/54/7 36/55/7 44/56/7
f 43/57/7 44/58/7 41/59/7 40/60/7
f 45/61/8 26/62/8 25/63/8 46/64/8
f 45/65/8 46/66/8 21/67/8 20/68/8
f 47/69/9 48/70/9 49/71/9 50/72/9
f 47/69/9 50/72/9 51/73/9 52/74/9
f 53/75/9 54/76/9 51/73/9 50/72/9
f 53/75/9 50/72/9 49/71/9 55/77/9
f 56/78/9 57/79/9 54/76/9 53/75/9
f 56/78/9 53/75/9 55/77/9 58/80/9
f 59/81/9 60/82/9 61/83/9 62/84/9
f 59/81/9 62/84/9 63/85/9 64/86/9
f 62/84/9 61/83/9 57/79/9 56/78/9
f 62/84/9 56/78/9 58/80/9 63/85/9
