# Blender v2.82 (sub 7) OBJ File: 'mushroom.blend'
# www.blender.org
mtllib mushroom.mtl
o mushroom
v 0.127886 -0.333294 -0.027878
v 0.120315 -0.335108 -0.041447
v 0.097547 -0.316772 -0.023715
v 0.127886 -0.332328 -0.014065
v 0.112744 -0.336921 -0.055015
v 0.057151 -0.306842 -0.031826
v 0.065351 -0.303831 -0.002170
v 0.127886 -0.331362 -0.000251
v -0.005190 -0.299962 -0.002440
v 0.092326 -0.341818 -0.091685
v 0.046094 -0.309493 -0.051684
v 0.102535 -0.339369 -0.073350
v 0.048696 -0.348325 -0.113480
v 0.022466 -0.313017 -0.063487
v 0.070510 -0.345071 -0.102582
v 0.035644 -0.350270 -0.119987
v 0.017131 -0.331318 -0.100382
v 0.022592 -0.352216 -0.126494
v 0.011415 -0.353487 -0.126406
v -0.003776 -0.316500 -0.070439
v 0.000237 -0.354757 -0.126317
v -0.019596 -0.357011 -0.126159
v -0.035796 -0.358289 -0.117971
v -0.021556 -0.335660 -0.099290
v -0.009679 -0.355884 -0.126238
v -0.051996 -0.359567 -0.109782
v -0.032062 -0.319105 -0.061485
v -0.110396 -0.362189 -0.051904
v -0.063687 -0.320525 -0.030142
v -0.100434 -0.362378 -0.070875
v -0.052898 -0.320730 -0.050688
v -0.090472 -0.362567 -0.089845
v -0.118516 -0.362049 -0.036632
v -0.100705 -0.339194 -0.020560
v -0.126636 -0.361908 -0.021359
v -0.126636 -0.361100 -0.009794
v -0.072482 -0.319497 -0.001074
v -0.126636 -0.360291 0.001771
v -0.126636 -0.358646 0.025297
v -0.118486 -0.356715 0.039591
v -0.100689 -0.336306 0.020717
v -0.126636 -0.359468 0.013534
v -0.110336 -0.354785 0.053886
v -0.063655 -0.316515 0.027147
v -0.089094 -0.349721 0.091615
v -0.052151 -0.313773 0.047579
v -0.099715 -0.352253 0.072751
v -0.051448 -0.343969 0.112375
v -0.031764 -0.310658 0.058821
v -0.070270 -0.346845 0.101995
v -0.036164 -0.341642 0.120695
v -0.021830 -0.321822 0.099046
v -0.020881 -0.339314 0.129015
v -0.010460 -0.338130 0.128932
v -0.003924 -0.306855 0.067743
v -0.000038 -0.336945 0.128849
v 0.024115 -0.334200 0.128657
v 0.038608 -0.333174 0.119660
v 0.018662 -0.317237 0.098486
v 0.012039 -0.335573 0.128753
v 0.053100 -0.332148 0.110663
v 0.024851 -0.304257 0.057894
v 0.088832 -0.329582 0.088998
v 0.044202 -0.302867 0.046162
v 0.070966 -0.330865 0.099830
v 0.110354 -0.329788 0.050894
v 0.055857 -0.302979 0.025527
v 0.099593 -0.329685 0.069946
v 0.119120 -0.329898 0.035007
v 0.096900 -0.313951 0.017687
v 0.127886 -0.330008 0.019119
v 0.127886 -0.330685 0.009434
v -0.071234 -0.361067 -0.099814
v 0.090378 -0.323608 -0.021984
v 0.053447 -0.319955 -0.029549
v 0.061529 -0.317053 -0.001252
v -0.003601 -0.313481 -0.001502
v 0.043749 -0.322281 -0.046968
v 0.023111 -0.325359 -0.057279
v 0.016974 -0.336889 -0.092020
v -0.002295 -0.328750 -0.064284
v -0.018173 -0.340895 -0.091892
v -0.026088 -0.330972 -0.057192
v -0.057615 -0.332467 -0.027073
v -0.047650 -0.332655 -0.046049
v -0.092415 -0.344250 -0.018611
v -0.065732 -0.331517 -0.000241
v -0.092137 -0.341521 0.019957
v -0.057058 -0.328640 0.026735
v -0.046961 -0.326232 0.044681
v -0.026436 -0.323097 0.055987
v -0.018737 -0.328080 0.092283
v -0.002433 -0.319845 0.063299
v 0.018061 -0.323958 0.091139
v 0.024662 -0.317409 0.053878
v 0.042002 -0.316163 0.043373
v 0.052866 -0.316267 0.024134
v 0.090087 -0.320943 0.016607
v 0.010467 -0.323852 -0.027932
v 0.024915 -0.320371 -0.000935
v 0.036301 -0.384587 -0.000305
v 0.020558 -0.384485 -0.029736
v -0.011638 -0.384505 -0.029736
v -0.019067 -0.327220 -0.027696
v 0.041078 -0.448598 0.004326
v 0.025336 -0.448455 -0.025105
v -0.006860 -0.448484 -0.025105
v 0.038484 -0.500685 0.004377
v 0.023948 -0.500514 -0.022797
v -0.005778 -0.500548 -0.022797
v -0.037157 -0.327257 0.001497
v -0.031359 -0.384528 0.001806
v -0.011638 -0.384547 0.030445
v -0.019065 -0.323366 0.027735
v -0.026582 -0.448515 0.006442
v -0.006860 -0.448540 0.035076
v -0.023987 -0.500585 0.006334
v -0.005778 -0.500617 0.032768
v 0.010472 -0.320021 0.027501
v 0.020558 -0.384569 0.030445
v 0.025336 -0.448571 0.035076
v 0.023948 -0.500652 0.032768
vt 1.000000 0.733101
vt 0.985200 0.768671
vt 0.930140 0.714821
vt 1.000000 0.697041
vt 0.970400 0.804241
vt 0.860280 0.732601
vt 0.875080 0.660971
vt 1.000000 0.660991
vt 0.750170 0.660951
vt 0.930420 0.901661
vt 0.840290 0.781311
vt 0.950410 0.852951
vt 0.845690 0.959871
vt 0.797930 0.810411
vt 0.888110 0.930841
vt 0.840350 0.781381
vt 0.930530 0.901811
vt 0.820040 0.977221
vt 0.785170 0.902491
vt 0.794380 0.994581
vt 0.772410 0.994581
vt 0.750300 0.827761
vt 0.750440 0.994581
vt 0.711450 0.994581
vt 0.679600 0.973421
vt 0.714950 0.900591
vt 0.730940 0.994581
vt 0.647760 0.952261
vt 0.698960 0.806611
vt 0.532570 0.800721
vt 0.641370 0.730831
vt 0.552280 0.850071
vt 0.661070 0.780181
vt 0.571980 0.899421
vt 0.516500 0.761011
vt 0.570880 0.710971
vt 0.500430 0.721301
vt 0.500380 0.691111
vt 0.625250 0.660931
vt 0.500330 0.660911
vt 0.500230 0.599491
vt 0.516240 0.562011
vt 0.570740 0.611471
vt 0.500280 0.630201
vt 0.532240 0.524521
vt 0.641200 0.592731
vt 0.574290 0.426551
vt 0.662230 0.543751
vt 0.553270 0.475531
vt 0.648840 0.371271
vt 0.699500 0.516111
vt 0.611230 0.398461
vt 0.661900 0.543301
vt 0.573620 0.425651
vt 0.678880 0.349291
vt 0.714450 0.421711
vt 0.708920 0.327311
vt 0.729410 0.327311
vt 0.750030 0.494131
vt 0.749900 0.327321
vt 0.797380 0.327331
vt 0.825860 0.350481
vt 0.787950 0.422311
vt 0.773640 0.327331
vt 0.854350 0.373621
vt 0.802260 0.517291
vt 0.923020 0.430171
vt 0.836590 0.545561
vt 0.888680 0.401901
vt 0.965720 0.527841
vt 0.857940 0.594401
vt 0.945000 0.478171
vt 0.837220 0.544721
vt 0.924270 0.428501
vt 0.982860 0.569131
vt 0.928970 0.615051
vt 1.000000 0.610421
vt 1.000000 0.635701
vt 0.572680 0.901171
vt 0.661420 0.781061
vt 0.610220 0.926711
vt 0.500450 0.733101
vt 0.500390 0.697041
vt 0.429970 0.716021
vt 0.484690 0.771071
vt 0.359550 0.735001
vt 0.468930 0.809051
vt 0.500330 0.660991
vt 0.375250 0.660971
vt 0.250170 0.660951
vt 0.431050 0.901661
vt 0.449990 0.855361
vt 0.340610 0.781311
vt 0.350320 0.956741
vt 0.390740 0.929271
vt 0.300240 0.808841
vt 0.340660 0.781381
vt 0.431160 0.901811
vt 0.286330 0.901711
vt 0.322350 0.975661
vt 0.272410 0.994581
vt 0.294380 0.994581
vt 0.250300 0.827761
vt 0.250440 0.994581
vt 0.211440 0.994581
vt 0.230940 0.994581
vt 0.217230 0.902111
vt 0.184160 0.976461
vt 0.203520 0.809641
vt 0.156880 0.958331
vt 0.032050 0.800691
vt 0.051700 0.850061
vt 0.141110 0.730821
vt 0.160760 0.780181
vt 0.071360 0.899421
vt 0.070550 0.710971
vt 0.016020 0.761001
vt 0.000000 0.691111
vt -0.000000 0.721301
vt 0.125080 0.660931
vt 0.000000 0.660911
vt 0.000000 0.599491
vt 0.000000 0.630201
vt 0.071100 0.610261
vt 0.017120 0.559601
vt 0.142200 0.590331
vt 0.034240 0.519701
vt 0.074440 0.426551
vt 0.054340 0.473121
vt 0.162300 0.543751
vt 0.155530 0.366371
vt 0.114650 0.396011
vt 0.202850 0.513661
vt 0.161970 0.543301
vt 0.073770 0.425651
vt 0.216130 0.420491
vt 0.182220 0.346841
vt 0.229410 0.327311
vt 0.208920 0.327311
vt 0.250030 0.494131
vt 0.249900 0.327321
vt 0.297380 0.327331
vt 0.273640 0.327331
vt 0.288460 0.422731
vt 0.326900 0.351321
vt 0.303290 0.518131
vt 0.356420 0.375301
vt 0.422870 0.430171
vt 0.389650 0.402741
vt 0.336520 0.545561
vt 0.466200 0.528811
vt 0.445160 0.478651
vt 0.358180 0.594881
vt 0.337150 0.544721
vt 0.424130 0.428501
vt 0.429240 0.615291
vt 0.483220 0.569621
vt 0.500290 0.635711
vt 0.500250 0.610421
vt 0.072060 0.901171
vt 0.114470 0.929751
vt 0.161120 0.781061
vt 0.951810 0.228511
vt 0.951840 0.265981
vt 0.842650 0.265141
vt 0.842610 0.228101
vt 0.842580 0.191681
vt 0.951790 0.192311
vt 0.733460 0.264301
vt 0.733420 0.227671
vt 0.733370 0.191041
vt 0.624280 0.263461
vt 0.624220 0.227271
vt 0.624150 0.190401
vt 0.951770 0.151241
vt 0.842540 0.151231
vt 0.842510 0.118211
vt 0.951750 0.118651
vt 0.733310 0.151221
vt 0.733270 0.117771
vt 0.624080 0.151211
vt 0.624030 0.117331
vt 0.951730 0.078081
vt 0.842470 0.078531
vt 0.842440 0.044741
vt 0.951710 0.044981
vt 0.733220 0.078981
vt 0.733170 0.044501
vt 0.623960 0.079421
vt 0.623900 0.044271
vt 1.000000 0.994581
vt 1.000000 0.994581
vt 1.000000 0.994581
vt 1.000000 0.994581
vt 1.000000 0.994581
vt 1.000000 0.994581
vt 1.000000 0.994581
vt 1.000000 0.994581
vt 1.000000 0.994581
vt 1.000000 0.994581
vt 1.000000 0.994581
vt 1.000000 0.994581
vn 0.4449 0.8703 -0.2114
vn 0.3242 0.8592 -0.3957
vn 0.4183 0.9080 0.0238
vn 0.1324 0.9818 -0.1363
vn 0.3482 0.8840 -0.3119
vn 0.0371 0.9876 -0.1525
vn 0.1358 0.8414 -0.5230
vn -0.0336 0.9741 -0.2235
vn 0.2451 0.8347 -0.4932
vn 0.0590 0.7854 -0.6162
vn -0.0429 0.9486 -0.3135
vn -0.2077 0.7892 -0.5779
vn -0.2624 0.7461 -0.6120
vn -0.4233 0.7573 -0.4973
vn 0.0007 0.8170 -0.5767
vn -0.1847 0.9319 -0.3123
vn -0.5540 0.7771 -0.2986
vn -0.5540 0.7771 -0.2987
vn -0.2646 0.9528 -0.1485
vn -0.5256 0.7552 -0.3916
vn -0.6390 0.7372 -0.2194
vn -0.3534 0.9250 -0.1396
vn -0.6124 0.7898 0.0350
vn -0.6358 0.7627 0.1183
vn -0.5205 0.8013 0.2950
vn -0.6126 0.7770 -0.1447
vn -0.3532 0.9355 0.0116
vn -0.5498 0.8108 0.2007
vn -0.2635 0.9645 0.0189
vn -0.3495 0.8478 0.3989
vn -0.1963 0.9768 0.0854
vn -0.4399 0.8151 0.3769
vn -0.2706 0.8277 0.4917
vn -0.1887 0.9659 0.1771
vn -0.0039 0.8906 0.4548
vn 0.0842 0.8750 0.4767
vn 0.2600 0.8955 0.3613
vn -0.1772 0.8718 0.4567
vn -0.0289 0.9841 0.1753
vn 0.1701 0.9059 0.3878
vn -0.0219 0.9964 0.0818
vn 0.3574 0.9129 0.1969
vn 0.0412 0.9990 0.0179
vn 0.3375 0.8954 0.2903
vn 0.4517 0.8830 0.1277
vn 0.1328 0.9910 0.0150
vn 0.4140 0.8969 -0.1555
vn -0.3316 0.7861 -0.5217
vn -0.1903 0.9560 -0.2233
vn -0.2233 -0.9616 0.1593
vn -0.1670 -0.9485 0.2692
vn -0.2188 -0.9753 0.0296
vn -0.0795 -0.9891 0.1241
vn -0.1769 -0.9579 0.2264
vn -0.1768 -0.9579 0.2264
vn -0.0371 -0.9876 0.1525
vn -0.0417 -0.9314 0.3616
vn 0.0336 -0.9741 0.2235
vn -0.0988 -0.9314 0.3503
vn 0.0131 -0.9129 0.4080
vn 0.0564 -0.9634 0.2620
vn 0.1568 -0.9052 0.3950
vn 0.2112 -0.8879 0.4088
vn 0.3042 -0.8861 0.3497
vn 0.0495 -0.9170 0.3957
vn 0.1667 -0.9507 0.2615
vn 0.3989 -0.8907 0.2183
vn 0.3988 -0.8907 0.2183
vn 0.2647 -0.9528 0.1485
vn 0.3869 -0.8827 0.2667
vn 0.4418 -0.8818 0.1649
vn 0.3032 -0.9447 0.1251
vn 0.4342 -0.9006 0.0203
vn 0.4389 -0.8975 -0.0425
vn 0.3849 -0.9107 -0.1496
vn 0.4338 -0.8953 0.1012
vn 0.3029 -0.9530 0.0043
vn 0.3965 -0.9125 -0.1007
vn 0.2635 -0.9645 -0.0189
vn 0.2684 -0.9361 -0.2274
vn 0.2683 -0.9361 -0.2275
vn 0.2684 -0.9361 -0.2275
vn 0.1963 -0.9768 -0.0854
vn 0.3152 -0.9238 -0.2174
vn 0.2159 -0.9372 -0.2740
vn 0.1704 -0.9775 -0.1247
vn 0.0550 -0.9636 -0.2617
vn -0.0029 -0.9648 -0.2629
vn -0.1104 -0.9716 -0.2094
vn 0.1418 -0.9549 -0.2608
vn 0.0464 -0.9913 -0.1230
vn -0.0639 -0.9733 -0.2207
vn -0.0638 -0.9733 -0.2207
vn -0.0639 -0.9733 -0.2206
vn 0.0220 -0.9964 -0.0819
vn -0.1841 -0.9779 -0.0987
vn -0.0412 -0.9990 -0.0178
vn -0.1761 -0.9733 -0.1470
vn -0.2298 -0.9720 -0.0489
vn -0.0801 -0.9968 0.0035
vn -0.2173 -0.9696 0.1122
vn 0.2570 -0.8965 0.3610
vn 0.2566 -0.8965 0.3612
vn 0.2569 -0.8965 0.3609
vn 0.1901 -0.9560 0.2235
vn 0.8674 0.1537 -0.4733
vn -0.0056 0.0318 -0.9995
vn 0.8814 0.0317 -0.4713
vn 0.0001 -0.0722 -0.9974
vn 0.8808 -0.0444 -0.4714
vn 0.0000 -0.0443 -0.9990
vn -0.8455 -0.0897 -0.5264
vn -0.8185 -0.0769 0.5694
vn -0.8435 -0.1012 -0.5275
vn -0.8234 -0.0204 0.5671
vn -0.8472 -0.0411 -0.5297
vn -0.8228 -0.0422 0.5667
vn 0.0014 0.0451 0.9990
vn 0.8799 0.1591 0.4478
vn 0.0001 0.0722 0.9974
vn 0.8858 0.0989 0.4534
vn -0.0000 -0.0443 0.9990
vn 0.8893 -0.0439 0.4553
vn -0.1128 0.9912 -0.0692
vn -0.1130 0.9912 -0.0688
vn -0.1123 0.9913 -0.0692
vn -0.1136 0.9913 -0.0670
vn -0.0071 -1.0000 -0.0025
vn 0.0011 -1.0000 -0.0025
vn 0.0000 -1.0000 -0.0012
vn -0.0012 -1.0000 -0.0012
usemtl mat1
s off
f 1/1/1 2/2/1 3/3/1 4/4/1
f 2/2/2 5/5/2 6/6/2 3/3/2
f 4/4/3 3/3/3 7/7/3 8/8/3
f 3/3/4 6/6/4 9/9/4 7/7/4
f 10/10/5 11/11/5 12/12/5
f 11/11/5 6/6/5 12/12/5
f 12/12/5 6/6/5 5/5/5
f 11/11/6 9/9/6 6/6/6
f 13/13/7 14/14/7 15/15/7
f 14/14/7 11/16/7 15/15/7
f 15/15/7 11/16/7 10/17/7
f 14/14/8 9/9/8 11/16/8
f 13/13/9 16/18/9 17/19/9 14/14/9
f 16/18/10 18/20/10 19/21/10 17/19/10
f 14/14/11 17/19/11 20/22/11 9/9/11
f 17/19/12 19/21/12 21/23/12 20/22/12
f 22/24/13 23/25/13 24/26/13 25/27/13
f 23/25/14 26/28/14 27/29/14 24/26/14
f 25/27/15 24/26/15 20/22/15 21/23/15
f 24/26/16 27/29/16 9/9/16 20/22/16
f 28/30/17 29/31/17 30/32/17
f 29/31/18 31/33/18 30/32/18
f 30/32/18 31/33/18 32/34/18
f 29/31/19 9/9/19 31/33/19
f 28/30/20 33/35/20 34/36/20 29/31/20
f 33/35/21 35/37/21 36/38/21 34/36/21
f 29/31/22 34/36/22 37/39/22 9/9/22
f 34/36/23 36/38/23 38/40/23 37/39/23
f 39/41/24 40/42/24 41/43/24 42/44/24
f 40/42/25 43/45/25 44/46/25 41/43/25
f 42/44/26 41/43/26 37/39/26 38/40/26
f 41/43/27 44/46/27 9/9/27 37/39/27
f 45/47/28 46/48/28 47/49/28
f 46/48/28 44/46/28 47/49/28
f 47/49/28 44/46/28 43/45/28
f 46/48/29 9/9/29 44/46/29
f 48/50/30 49/51/30 50/52/30
f 49/51/30 46/53/30 50/52/30
f 50/52/30 46/53/30 45/54/30
f 49/51/31 9/9/31 46/53/31
f 48/50/32 51/55/32 52/56/32 49/51/32
f 51/55/33 53/57/33 54/58/33 52/56/33
f 49/51/34 52/56/34 55/59/34 9/9/34
f 52/56/35 54/58/35 56/60/35 55/59/35
f 57/61/36 58/62/36 59/63/36 60/64/36
f 58/62/37 61/65/37 62/66/37 59/63/37
f 60/64/38 59/63/38 55/59/38 56/60/38
f 59/63/39 62/66/39 9/9/39 55/59/39
f 63/67/40 64/68/40 65/69/40
f 64/68/40 62/66/40 65/69/40
f 65/69/40 62/66/40 61/65/40
f 64/68/41 9/9/41 62/66/41
f 66/70/42 67/71/42 68/72/42
f 67/71/42 64/73/42 68/72/42
f 68/72/42 64/73/42 63/74/42
f 67/71/43 9/9/43 64/73/43
f 66/70/44 69/75/44 70/76/44 67/71/44
f 69/75/45 71/77/45 72/78/45 70/76/45
f 67/71/46 70/76/46 7/7/46 9/9/46
f 70/76/47 72/78/47 8/8/47 7/7/47
f 32/79/48 31/80/48 73/81/48
f 31/80/48 27/29/48 73/81/48
f 73/81/48 27/29/48 26/28/48
f 31/80/49 9/9/49 27/29/49
f 1/82/50 4/83/50 74/84/50 2/85/50
f 2/85/51 74/84/51 75/86/51 5/87/51
f 4/83/52 8/88/52 76/89/52 74/84/52
f 74/84/53 76/89/53 77/90/53 75/86/53
f 10/91/54 12/92/54 78/93/54
f 78/93/54 12/92/54 75/86/54
f 12/92/55 5/87/55 75/86/55
f 78/93/56 75/86/56 77/90/56
f 13/94/57 15/95/57 79/96/57
f 79/96/57 15/95/57 78/97/57
f 15/95/57 10/98/57 78/97/57
f 79/96/58 78/97/58 77/90/58
f 13/94/59 79/96/59 80/99/59 16/100/59
f 16/100/60 80/99/60 19/101/60 18/102/60
f 79/96/61 77/90/61 81/103/61 80/99/61
f 80/99/62 81/103/62 21/104/62 19/101/62
f 22/105/63 25/106/63 82/107/63 23/108/63
f 23/108/64 82/107/64 83/109/64 26/110/64
f 25/106/65 21/104/65 81/103/65 82/107/65
f 82/107/66 81/103/66 77/90/66 83/109/66
f 28/111/67 30/112/67 84/113/67
f 84/113/68 30/112/68 85/114/68
f 30/112/68 32/115/68 85/114/68
f 84/113/69 85/114/69 77/90/69
f 28/111/70 84/113/70 86/116/70 33/117/70
f 33/117/71 86/116/71 36/118/71 35/119/71
f 84/113/72 77/90/72 87/120/72 86/116/72
f 86/116/73 87/120/73 38/121/73 36/118/73
f 39/122/74 42/123/74 88/124/74 40/125/74
f 40/125/75 88/124/75 89/126/75 43/127/75
f 42/123/76 38/121/76 87/120/76 88/124/76
f 88/124/77 87/120/77 77/90/77 89/126/77
f 45/128/78 47/129/78 90/130/78
f 90/130/78 47/129/78 89/126/78
f 47/129/78 43/127/78 89/126/78
f 90/130/79 89/126/79 77/90/79
f 48/131/80 50/132/80 91/133/80
f 91/133/81 50/132/81 90/134/81
f 50/132/82 45/135/82 90/134/82
f 91/133/83 90/134/83 77/90/83
f 48/131/84 91/133/84 92/136/84 51/137/84
f 51/137/85 92/136/85 54/138/85 53/139/85
f 91/133/86 77/90/86 93/140/86 92/136/86
f 92/136/87 93/140/87 56/141/87 54/138/87
f 57/142/88 60/143/88 94/144/88 58/145/88
f 58/145/89 94/144/89 95/146/89 61/147/89
f 60/143/90 56/141/90 93/140/90 94/144/90
f 94/144/91 93/140/91 77/90/91 95/146/91
f 63/148/92 65/149/92 96/150/92
f 96/150/93 65/149/93 95/146/93
f 65/149/94 61/147/94 95/146/94
f 96/150/95 95/146/95 77/90/95
f 66/151/96 68/152/96 97/153/96
f 97/153/96 68/152/96 96/154/96
f 68/152/96 63/155/96 96/154/96
f 97/153/97 96/154/97 77/90/97
f 66/151/98 97/153/98 98/156/98 69/157/98
f 69/157/99 98/156/99 72/158/99 71/159/99
f 97/153/100 77/90/100 76/89/100 98/156/100
f 98/156/101 76/89/101 8/88/101 72/158/101
f 32/160/102 73/161/102 85/162/102
f 85/162/103 73/161/103 83/109/103
f 73/161/104 26/110/104 83/109/104
f 85/162/105 83/109/105 77/90/105
f 99/163/106 100/164/106 101/165/106 102/166/106
f 99/163/107 102/166/107 103/167/107 104/168/107
f 102/166/108 101/165/108 105/169/108 106/170/108
f 102/166/109 106/170/109 107/171/109 103/167/109
f 106/170/110 105/169/110 108/172/110 109/173/110
f 106/170/111 109/173/111 110/174/111 107/171/111
f 111/175/112 104/168/112 103/167/112 112/176/112
f 111/175/113 112/176/113 113/177/113 114/178/113
f 112/176/114 103/167/114 107/171/114 115/179/114
f 112/176/115 115/179/115 116/180/115 113/177/115
f 115/179/116 107/171/116 110/174/116 117/181/116
f 115/179/117 117/181/117 118/182/117 116/180/117
f 119/183/118 114/178/118 113/177/118 120/184/118
f 119/183/119 120/184/119 101/185/119 100/186/119
f 120/184/120 113/177/120 116/180/120 121/187/120
f 120/184/121 121/187/121 105/188/121 101/185/121
f 121/187/122 116/180/122 118/182/122 122/189/122
f 121/187/123 122/189/123 108/190/123 105/188/123
f 119/191/124 111/192/124 114/193/124
f 119/191/125 104/194/125 111/192/125
f 100/195/126 104/194/126 119/191/126
f 104/194/127 100/195/127 99/196/127
f 122/197/128 109/198/128 108/199/128
f 122/197/129 110/200/129 109/198/129
f 110/200/130 118/201/130 117/202/130
f 118/201/131 110/200/131 122/197/131
